<svg xmlns="http://www.w3.org/2000/svg" xmlns:xlink="http://www.w3.org/1999/xlink" width="500" zoomAndPan="magnify" viewBox="0 0 375 374.999991" height="500" preserveAspectRatio="xMidYMid meet" version="1.0"><path fill="#a7d28d" d="M 133.53125 188.722656 C 133.53125 184.0625 134.128906 179.535156 135.242188 175.21875 L 200.8125 240.792969 C 196.496094 241.910156 191.96875 242.503906 187.308594 242.503906 C 157.613281 242.503906 133.53125 218.433594 133.53125 188.722656 Z M 187.3125 134.945312 C 182.644531 134.945312 178.121094 135.542969 173.808594 136.65625 L 239.382812 202.230469 C 240.5 197.917969 241.09375 193.390625 241.09375 188.726562 C 241.09375 159.023438 217.015625 134.945312 187.3125 134.945312 Z M 187.3125 93.382812 C 170.117188 93.382812 153.472656 96.070312 137.675781 100.527344 L 157.941406 120.789062 C 166.945312 116.890625 176.871094 114.71875 187.3125 114.71875 C 228.1875 114.71875 261.316406 147.855469 261.316406 188.722656 C 261.316406 199.164062 259.148438 209.089844 255.246094 218.09375 L 291.09375 253.9375 C 340.539062 226 373.042969 188.722656 373.042969 188.722656 C 373.042969 188.722656 289.886719 93.382812 187.3125 93.382812 Z M 216.683594 256.660156 C 207.671875 260.550781 197.75 262.730469 187.3125 262.730469 C 146.4375 262.730469 113.304688 229.589844 113.304688 188.71875 C 113.304688 178.28125 115.476562 168.355469 119.375 159.347656 L 83.535156 123.507812 C 34.09375 151.449219 1.582031 188.722656 1.582031 188.722656 C 1.582031 188.722656 84.738281 284.066406 187.316406 284.066406 C 204.507812 284.066406 221.148438 281.378906 236.949219 276.921875 Z M 303.554688 304.972656 C 308.875 299.652344 308.875 291.015625 303.554688 285.695312 L 89.351562 71.484375 C 84.023438 66.160156 75.394531 66.160156 70.066406 71.484375 C 64.742188 76.808594 64.742188 85.441406 70.066406 90.765625 L 284.273438 304.972656 C 286.933594 307.636719 290.425781 308.972656 293.917969 308.972656 C 297.40625 308.96875 300.894531 307.636719 303.554688 304.972656 Z M 303.554688 304.972656 " fill-opacity="1" fill-rule="nonzero"/></svg>