<svg xmlns="http://www.w3.org/2000/svg" xmlns:xlink="http://www.w3.org/1999/xlink" width="500" zoomAndPan="magnify" viewBox="0 0 375 374.999991" height="500" preserveAspectRatio="xMidYMid meet" version="1.0"><path fill="#a7d28d" d="M 187.5 223.6875 C 150.058594 223.6875 119.707031 193.320312 119.707031 155.894531 C 119.707031 118.453125 150.058594 88.101562 187.5 88.101562 C 224.941406 88.101562 255.292969 118.453125 255.292969 155.894531 C 255.292969 193.320312 224.941406 223.6875 187.5 223.6875 Z M 187.5 47.113281 C 187.5 47.113281 84.066406 42.074219 0 155.921875 C 84.066406 269.769531 187.5 264.730469 187.5 264.730469 C 187.5 264.730469 290.933594 269.769531 375 155.921875 C 290.933594 42.074219 187.5 47.113281 187.5 47.113281 " fill-opacity="1" fill-rule="nonzero"/><path fill="#a7d28d" d="M 221.484375 155.921875 C 221.484375 174.6875 206.265625 189.90625 187.5 189.90625 C 168.734375 189.90625 153.515625 174.6875 153.515625 155.921875 C 153.515625 137.15625 168.734375 121.9375 187.5 121.9375 C 206.265625 121.9375 221.484375 137.15625 221.484375 155.921875 " fill-opacity="1" fill-rule="nonzero"/></svg>